<svg width="21" height="21" viewBox="0 0 21 21" fill="none" xmlns="http://www.w3.org/2000/svg">
<g clip-path="url(#clip0_5_78)">
<path d="M17.7898 11.6102C18.0523 11.8727 18.1997 12.2288 18.1997 12.6C18.1997 12.9712 18.0523 13.3273 17.7898 13.5898L11.4898 19.8898C11.2273 20.1523 10.8712 20.2997 10.5 20.2997C10.1288 20.2997 9.77275 20.1523 9.51021 19.8898L3.21021 13.5898C2.95518 13.3258 2.81407 12.9721 2.81726 12.605C2.82045 12.238 2.96769 11.8868 3.22726 11.6273C3.48683 11.3677 3.83797 11.2204 4.20504 11.2173C4.57212 11.2141 4.92576 11.3552 5.18981 11.6102L9.10001 15.4L9.10001 2.1C9.10001 1.7287 9.24751 1.3726 9.51006 1.11005C9.77261 0.8475 10.1287 0.700001 10.5 0.700001C10.8713 0.700001 11.2274 0.8475 11.49 1.11005C11.7525 1.3726 11.9 1.7287 11.9 2.1V15.4L15.8102 11.6102C16.0727 11.3477 16.4288 11.2003 16.8 11.2003C17.1712 11.2003 17.5273 11.3477 17.7898 11.6102Z" fill="#ED254E"/>
</g>
<defs>
<clipPath id="clip0_5_78">
<rect width="21" height="21" fill="white" transform="matrix(0 1 -1 0 21 0)"/>
</clipPath>
</defs>
</svg>
