<svg width="83" height="83" viewBox="0 0 83 83" fill="none" xmlns="http://www.w3.org/2000/svg">
<path d="M25.9444 0H34.86V3.72808H29.6725V7.45617H34.86V11.1842H25.9444V0ZM36.641 0H45.5601V3.24392H40.3726V3.89062H45.5601V11.3468H36.641V7.94379H41.8285V7.29362H36.641V0ZM47.3446 0H56.2567V3.24392H51.0692V3.89062H56.2567V11.3468H47.3446V7.94379H52.5321V7.29362H47.3446V0Z" fill="black"/>
<path fill-rule="evenodd" clip-rule="evenodd" d="M41.4689 83L17.4542 76.3324L10.375 16.313H72.625L65.5493 76.3254L41.4689 83ZM24.3709 43.4817L25.0314 50.841H50.5435L49.6893 60.386L41.4792 62.6062H41.4723L33.2761 60.3929L32.7504 54.5241H25.36L26.3905 66.0819L41.4689 70.2664L56.5714 66.0819L58.4112 45.4564L58.5911 43.4817L59.9191 28.5797H23.0463L23.7172 35.9425H51.8543L51.1833 43.4817H24.3709Z" fill="black"/>
</svg>
