<svg width="89" height="89" viewBox="0 0 89 89" fill="none" xmlns="http://www.w3.org/2000/svg">
<g clip-path="url(#clip0_23_21)">
<path d="M14.8511 11.3149C22.9994 4.01417 33.5595 -0.0158464 44.5 4.683e-05C52.6009 -0.00314715 60.549 2.20564 67.4867 6.38813C74.4244 10.5706 80.0884 16.568 83.8677 23.7334H44.5C40.4044 23.7327 36.3999 24.9427 32.99 27.2114C29.5801 29.4801 26.917 32.7062 25.3353 36.4841L14.8511 11.3149Z" fill="black"/>
<path d="M10.3537 15.9607C5.6956 21.5357 2.47268 28.1659 0.966151 35.2728C-0.540382 42.3797 -0.284749 49.7473 1.71074 56.7327C3.70623 63.7181 7.38095 70.109 12.4142 75.3477C17.4475 80.5864 23.6863 84.5137 30.5863 86.7869L47.2709 65.0828C42.1382 65.7751 36.9321 64.5252 32.6733 61.5781C28.4144 58.6309 25.4102 54.1992 24.2495 49.1518C24.1339 48.9804 24.0365 48.7974 23.9588 48.6059L10.3537 15.9607Z" fill="black"/>
<path d="M36.8757 88.3473C44.5329 89.6824 52.4064 88.9885 59.7121 86.3347C67.0179 83.681 73.5011 79.1599 78.5164 73.2216C83.5317 67.2834 86.9041 60.135 88.2978 52.4882C89.6916 44.8414 89.0582 36.9629 86.4605 29.637C86.319 29.6571 86.1763 29.667 86.0333 29.6666H59.0367C61.0122 31.5984 62.5812 33.906 63.6511 36.4535C64.7211 39.001 65.2704 41.7369 65.2667 44.5C65.2812 49.8056 63.257 54.914 59.6122 58.7696L36.8757 88.3473Z" fill="black"/>
<path d="M29.6667 44.5C29.6667 40.5659 31.2295 36.793 34.0113 34.0112C36.7931 31.2294 40.566 29.6666 44.5 29.6666C48.4341 29.6666 52.207 31.2294 54.9888 34.0112C57.7706 36.793 59.3334 40.5659 59.3334 44.5C59.3334 48.434 57.7706 52.2069 54.9888 54.9887C52.207 57.7705 48.4341 59.3333 44.5 59.3333C40.566 59.3333 36.7931 57.7705 34.0113 54.9887C31.2295 52.2069 29.6667 48.434 29.6667 44.5Z" fill="black"/>
</g>
<defs>
<clipPath id="clip0_23_21">
<rect width="89" height="89" fill="white"/>
</clipPath>
</defs>
</svg>
