<svg width="108" height="31" viewBox="0 0 108 31" fill="none" xmlns="http://www.w3.org/2000/svg">
<g clip-path="url(#clip0_14_163)">
<path d="M0.702844 24.057V12.2019H15.7098V11.5085H0.702844V0.693235H16.6586V0H0V24.7503H16.7991V24.057H0.702844ZM30.3301 6.93277L24.1095 15.0096L18.0292 6.93297H17.1155L23.6876 15.5298L16.4827 24.7501H17.3262L24.1091 16.0493L30.9272 24.7501H31.8058L24.566 15.5293L31.1732 6.93256L30.3301 6.93277ZM33.9147 30.8512V19.7589H33.985C34.4069 21.3765 35.2386 22.6764 36.4804 23.6586C37.7222 24.6406 39.3036 25.1318 41.2248 25.1318C42.4666 25.1318 43.5679 24.8834 44.5285 24.3866C45.4891 23.8898 46.2915 23.2138 46.9359 22.3587C47.5801 21.5036 48.0722 20.5099 48.4121 19.3775C48.7517 18.2453 48.9217 17.055 48.9217 15.8073C48.9217 14.4668 48.7458 13.2303 48.3943 12.0981C48.0429 10.9657 47.5333 9.98346 46.8657 9.15166C46.1978 8.31965 45.3895 7.6724 44.4405 7.21052C43.4917 6.74822 42.4197 6.51707 41.2248 6.51707C40.311 6.51707 39.4618 6.65002 38.6769 6.91571C37.892 7.1816 37.195 7.55693 36.5858 8.04232C35.9731 8.53143 35.4397 9.11005 35.0042 9.75813C34.5592 10.4168 34.2193 11.139 33.985 11.9248H33.9147V6.93277H33.2119V30.8512H33.9147ZM41.2248 24.4729C39.0226 24.4729 37.2535 23.7277 35.918 22.2372C34.5826 20.7467 33.9147 18.6031 33.9147 15.8069C33.9147 14.6513 34.0788 13.5537 34.4069 12.5138C34.7349 11.474 35.2093 10.561 35.8301 9.7754C36.4511 8.98958 37.2184 8.36563 38.132 7.90354C39.0458 7.44125 40.0769 7.2101 41.2248 7.2101C42.3963 7.2101 43.4215 7.44125 44.3 7.90354C45.1786 8.36563 45.9051 8.99541 46.479 9.79267C47.053 10.5899 47.4865 11.5029 47.7795 12.5311C48.0722 13.5595 48.2186 14.6513 48.2186 15.8069C48.2186 16.8469 48.084 17.8812 47.8145 18.9094C47.5451 19.9378 47.1291 20.8622 46.5668 21.6827C46.0046 22.5029 45.2843 23.173 44.4055 23.6932C43.5267 24.2131 42.4666 24.4729 41.2248 24.4729ZM52.7875 24.7503V14.663C52.7875 13.6924 52.928 12.7447 53.2094 11.8206C53.4904 10.8962 53.9238 10.0814 54.5096 9.37677C55.0954 8.67189 55.8392 8.11721 56.7413 7.71276C57.6433 7.3083 58.7153 7.14082 59.9571 7.2101V6.51687C58.8792 6.49398 57.9363 6.60924 57.128 6.86348C56.3195 7.11772 55.6225 7.46434 55.0368 7.90354C54.451 8.34254 53.9825 8.85664 53.6311 9.44605C53.2799 10.0345 53.0193 10.6712 52.8578 11.3352H52.7875V6.93277H52.0847V24.7505L52.7875 24.7503ZM60.8356 15.9802H75.9478C75.9949 14.7554 75.8719 13.577 75.5789 12.4445C75.2861 11.3121 74.8174 10.3068 74.1732 9.42879C73.5288 8.55059 72.6971 7.8457 71.6778 7.31413C70.6586 6.78255 69.4461 6.51687 68.0404 6.51687C67.0328 6.51687 66.0488 6.72492 65.0881 7.14103C64.1275 7.55693 63.284 8.1634 62.5577 8.96066C61.8315 9.75793 61.2457 10.7343 60.8006 11.8901C60.3555 13.0454 60.1328 14.3626 60.1328 15.8416C60.1328 17.1588 60.2851 18.3895 60.5897 19.5333C60.8943 20.6772 61.3628 21.6711 61.9954 22.5145C62.6282 23.358 63.4424 24.0109 64.438 24.4729C65.4337 24.9352 66.6345 25.1547 68.0404 25.1316C70.1021 25.1316 71.836 24.5595 73.2417 23.4158C74.6476 22.2717 75.4793 20.6599 75.7371 18.58H75.0343C74.7297 20.5445 73.9505 22.0177 72.6971 22.9997C71.4435 23.9819 69.868 24.4729 67.97 24.4729C66.6814 24.4729 65.5919 24.2534 64.7015 23.8144C63.8113 23.3755 63.0849 22.7744 62.5225 22.0119C61.9604 21.2491 61.5444 20.3537 61.275 19.3253C61.0054 18.2971 60.8591 17.1819 60.8356 15.9802ZM75.245 15.287H60.8359C60.9059 14.039 61.1402 12.9183 61.5385 11.9246C61.9369 10.9307 62.4582 10.0814 63.1026 9.37677C63.7468 8.67189 64.4967 8.13469 65.3518 7.76477C66.207 7.39506 67.1266 7.2101 68.1107 7.2101C69.2822 7.2101 70.3129 7.42398 71.2034 7.85153C72.0936 8.27908 72.8376 8.86267 73.4352 9.60209C74.0325 10.3415 74.4835 11.2024 74.7881 12.1845C75.0927 13.1667 75.245 14.2009 75.245 15.287ZM90.5331 12.2019H91.236C91.236 10.2144 90.6502 8.77009 89.4788 7.8688C88.3071 6.96751 86.7139 6.51687 84.699 6.51687C83.5743 6.51687 82.6255 6.65564 81.8522 6.93297C81.0791 7.2101 80.4465 7.56837 79.9544 8.00736C79.4625 8.44636 79.1111 8.93175 78.9001 9.46332C78.6892 9.9949 78.5837 10.5034 78.5837 10.9886C78.5837 11.9591 78.7594 12.7333 79.1111 13.3111C79.4625 13.8888 80.013 14.3395 80.7627 14.663C81.2782 14.8939 81.8638 15.102 82.52 15.2872C83.176 15.4719 83.9375 15.6683 84.8045 15.8762C85.5776 16.0613 86.339 16.2461 87.0889 16.4308C87.8386 16.6158 88.5005 16.8642 89.0745 17.1761C89.6486 17.4882 90.1171 17.8868 90.4804 18.3722C90.8434 18.8574 91.025 19.493 91.025 20.2786C91.025 21.0413 90.8436 21.6883 90.4804 22.2197C90.1202 22.7485 89.6462 23.1924 89.0922 23.5198C88.5298 23.8548 87.9029 24.0974 87.2119 24.2476C86.5207 24.3978 85.8471 24.4729 85.1911 24.4729C83.059 24.4729 81.4246 24.005 80.2883 23.0692C79.152 22.1332 78.5839 20.6599 78.5839 18.6493H77.8809C77.8809 20.8911 78.496 22.5318 79.7259 23.5719C80.9561 24.6117 82.7778 25.1316 85.1911 25.1316C85.9642 25.1316 86.7432 25.0449 87.5283 24.8716C88.313 24.6983 89.016 24.4153 89.6368 24.0223C90.2524 23.6349 90.7694 23.1131 91.148 22.4973C91.5346 21.8731 91.7281 21.1106 91.7281 20.2093C91.7281 19.3542 91.5581 18.661 91.2184 18.1294C90.8786 17.598 90.4335 17.1588 89.8828 16.8122C89.3322 16.4656 88.7115 16.1941 88.0202 15.9977C87.3251 15.8001 86.628 15.6094 85.929 15.4255C85.0687 15.2029 84.2077 14.9834 83.3458 14.767C82.608 14.5821 81.9226 14.3626 81.29 14.1083C80.6809 13.8541 80.1946 13.4902 79.8314 13.0165C79.4682 12.5427 79.2868 11.8668 79.2868 10.9886C79.2868 10.8269 79.3336 10.5379 79.4273 10.122C79.5209 9.70591 79.7437 9.28419 80.0951 8.85664C80.4465 8.4293 80.9852 8.04793 81.7117 7.71276C82.438 7.37779 83.4338 7.2101 84.699 7.2101C85.566 7.2101 86.3566 7.30268 87.0712 7.48744C87.7859 7.6724 88.4009 7.967 88.9163 8.37146C89.4318 8.77591 89.8301 9.29001 90.1112 9.91397C90.3924 10.5381 90.5331 11.3006 90.5331 12.2019ZM106.805 12.2019H107.508C107.508 10.2144 106.922 8.77009 105.751 7.8688C104.579 6.96751 102.986 6.51687 100.971 6.51687C99.8464 6.51687 98.8974 6.65564 98.1243 6.93297C97.351 7.2101 96.7184 7.56837 96.2265 8.00736C95.7344 8.44636 95.383 8.93175 95.1721 9.46332C94.9611 9.9949 94.8559 10.5034 94.8559 10.9886C94.8559 11.9591 95.0316 12.7333 95.3832 13.3111C95.7344 13.8888 96.2852 14.3395 97.0348 14.663C97.5504 14.8939 98.1359 15.102 98.7919 15.2872C99.448 15.4719 100.209 15.6683 101.076 15.8762C101.85 16.0613 102.611 16.2461 103.361 16.4308C104.111 16.6158 104.772 16.8642 105.347 17.1761C105.921 17.4882 106.389 17.8868 106.752 18.3722C107.116 18.8574 107.297 19.493 107.297 20.2786C107.297 21.0413 107.116 21.6883 106.752 22.2197C106.392 22.7485 105.918 23.1924 105.364 23.5198C104.802 23.8548 104.175 24.0974 103.484 24.2476C102.793 24.3978 102.119 24.4729 101.463 24.4729C99.3309 24.4729 97.6968 24.005 96.5604 23.0692C95.4239 22.1332 94.8559 20.6599 94.8559 18.6493H94.153C94.153 20.8911 94.7679 22.5318 95.9981 23.5719C97.2281 24.6117 99.0497 25.1316 101.463 25.1316C102.236 25.1316 103.015 25.0449 103.8 24.8716C104.585 24.6983 105.288 24.4153 105.909 24.0223C106.524 23.6349 107.042 23.1131 107.42 22.4973C107.807 21.8731 108 21.1106 108 20.2093C108 19.3542 107.83 18.661 107.49 18.1294C107.151 17.598 106.706 17.1588 106.155 16.8122C105.604 16.4656 104.983 16.1941 104.292 15.9977C103.597 15.8001 102.9 15.6094 102.201 15.4255C101.341 15.2029 100.48 14.9834 99.618 14.767C98.8799 14.5821 98.1946 14.3626 97.562 14.1083C96.9528 13.8541 96.4666 13.4902 96.1035 13.0165C95.7403 12.5427 95.5587 11.8668 95.5587 10.9886C95.5587 10.8269 95.6055 10.5379 95.6994 10.122C95.793 9.70591 96.0158 9.28419 96.367 8.85664C96.7184 8.4293 97.2574 8.04793 97.9836 7.71276C98.7101 7.37779 99.7057 7.2101 100.971 7.2101C101.838 7.2101 102.629 7.30268 103.343 7.48744C104.058 7.6724 104.673 7.967 105.188 8.37146C105.704 8.77591 106.102 9.29001 106.383 9.91397C106.665 10.5381 106.805 11.3006 106.805 12.2019" fill="#222222"/>
</g>
<defs>
<clipPath id="clip0_14_163">
<rect width="108" height="31" fill="white"/>
</clipPath>
</defs>
</svg>
