<svg width="145" height="145" viewBox="0 0 145 145" fill="none" xmlns="http://www.w3.org/2000/svg">
<path opacity="0.6" d="M70.4881 12.0833H50.3452C45.0038 12.0833 39.8811 14.2052 36.1042 17.9822C32.3272 21.7591 30.2053 26.8818 30.2053 32.2232C30.2053 37.5646 32.3272 42.6873 36.1042 46.4643C39.8811 50.2412 45.0038 52.3631 50.3452 52.3631H70.4881V12.0833Z" fill="black"/>
<path opacity="0.4" d="M70.4881 52.3631H50.3452C45.0046 52.3631 39.8827 54.4847 36.1063 58.2611C32.3299 62.0375 30.2083 67.1593 30.2083 72.5C30.2083 77.8406 32.3299 82.9625 36.1063 86.7389C39.8827 90.5153 45.0046 92.6368 50.3452 92.6368H70.4881V52.3631Z" fill="black"/>
<path d="M110.762 72.5C110.762 77.8414 108.64 82.9641 104.863 86.7411C101.086 90.518 95.9634 92.6399 90.622 92.6399C85.2805 92.6399 80.1579 90.518 76.3809 86.7411C72.6039 82.9641 70.4821 77.8414 70.4821 72.5C70.4821 67.1586 72.6039 62.0359 76.3809 58.2589C80.1579 54.482 85.2805 52.3601 90.622 52.3601C95.9634 52.3601 101.086 54.482 104.863 58.2589C108.64 62.0359 110.762 67.1586 110.762 72.5Z" fill="black"/>
<path opacity="0.2" d="M50.3452 92.6429H70.4881V112.78C70.4869 116.762 69.305 120.654 67.0919 123.965C64.8788 127.276 61.7338 129.856 58.0545 131.379C54.3752 132.902 50.3269 133.301 46.4212 132.523C42.5156 131.746 38.9281 129.829 36.1123 127.013C33.2965 124.197 31.3788 120.609 30.6016 116.704C29.8244 112.798 30.2227 108.75 31.746 105.071C33.2694 101.391 35.8495 98.2462 39.16 96.0331C42.4706 93.82 46.363 92.6441 50.3452 92.6429Z" fill="black"/>
<path opacity="0.8" d="M70.4821 12.0833H90.6189C95.9604 12.0833 101.083 14.2052 104.86 17.9822C108.637 21.7591 110.759 26.8818 110.759 32.2232C110.759 37.5646 108.637 42.6873 104.86 46.4643C101.083 50.2412 95.9604 52.3631 90.6189 52.3631H70.4821V12.0833Z" fill="black"/>
</svg>
