<svg width="24" height="24" viewBox="0 0 24 24" fill="none" xmlns="http://www.w3.org/2000/svg">
<path d="M12.17 1.272C11.9783 1.27566 11.7957 1.3544 11.6614 1.49128C11.5272 1.62816 11.452 1.81226 11.452 2.004V15.918C11.452 16.1121 11.5291 16.2983 11.6664 16.4356C11.8037 16.5729 11.9899 16.65 12.184 16.65C12.3781 16.65 12.5643 16.5729 12.7016 16.4356C12.8389 16.2983 12.916 16.1121 12.916 15.918V2.004C12.916 1.90677 12.8967 1.81051 12.8591 1.72084C12.8215 1.63117 12.7664 1.54989 12.697 1.48174C12.6277 1.4136 12.5454 1.35995 12.4551 1.32394C12.3648 1.28793 12.2672 1.27027 12.17 1.272ZM23.246 5.44C23.1505 5.44276 23.0564 5.46416 22.969 5.503L16.687 8.307C16.5585 8.36506 16.4494 8.45896 16.3729 8.57745C16.2965 8.69593 16.2558 8.83397 16.2558 8.975C16.2558 9.11603 16.2965 9.25406 16.3729 9.37255C16.4494 9.49103 16.5585 9.58494 16.687 9.643L22.969 12.457C23.0634 12.4991 23.1656 12.5209 23.269 12.521C23.4364 12.5205 23.5985 12.4626 23.7284 12.357C23.8582 12.2515 23.948 12.1046 23.9827 11.9409C24.0175 11.7772 23.9951 11.6065 23.9192 11.4573C23.8434 11.3081 23.7187 11.1894 23.566 11.121L18.78 8.976L23.566 6.839C23.7427 6.75943 23.8808 6.61322 23.9501 6.43225C24.0194 6.25128 24.0143 6.05025 23.936 5.873C23.8766 5.74075 23.7794 5.62905 23.6566 5.55199C23.5338 5.47493 23.3909 5.43596 23.246 5.44ZM0.746008 10.472C0.633178 10.4699 0.521404 10.494 0.419416 10.5423C0.317428 10.5906 0.227989 10.6618 0.158086 10.7504C0.0881823 10.839 0.0397077 10.9426 0.016449 11.053C-0.00680979 11.1634 -0.00422289 11.2777 0.0240076 11.387C1.76001 18.064 7.79901 22.728 14.707 22.728C14.9011 22.728 15.0873 22.6509 15.2246 22.5136C15.3619 22.3763 15.439 22.1901 15.439 21.996C15.439 21.8019 15.3619 21.6157 15.2246 21.4784C15.0873 21.3411 14.9011 21.264 14.707 21.264C11.6738 21.2652 8.72587 20.2602 6.32505 18.4064C3.92423 16.5527 2.20617 13.9549 1.44001 11.02C1.39973 10.8657 1.31013 10.7287 1.18486 10.63C1.05958 10.5312 0.905486 10.4751 0.746008 10.472Z" fill="black"/>
</svg>
