<svg width="89" height="89" viewBox="0 0 89 89" fill="none" xmlns="http://www.w3.org/2000/svg">
<path d="M9.64166 39.2712L31.0758 17.8L37.3429 24.1041C36.4529 27.2562 37.8992 30.705 40.7917 32.3737V52.9179C38.5667 54.1787 37.0833 56.5891 37.0833 59.3333C37.0833 61.3003 37.8647 63.1868 39.2556 64.5777C40.6465 65.9686 42.533 66.75 44.5 66.75C46.467 66.75 48.3535 65.9686 49.7444 64.5777C51.1353 63.1868 51.9167 61.3003 51.9167 59.3333C51.9167 56.5891 50.4333 54.1787 48.2083 52.9179V34.8954L55.8846 42.6458C55.625 43.2021 55.625 43.8325 55.625 44.5C55.625 46.467 56.4064 48.3535 57.7973 49.7444C59.1882 51.1353 61.0746 51.9166 63.0417 51.9166C65.0087 51.9166 66.8951 51.1353 68.286 49.7444C69.6769 48.3535 70.4583 46.467 70.4583 44.5C70.4583 42.533 69.6769 40.6465 68.286 39.2556C66.8951 37.8647 65.0087 37.0833 63.0417 37.0833C62.3742 37.0833 61.7437 37.0833 61.1875 37.3429L51.6571 27.8125C52.1175 26.0949 51.939 24.2686 51.1547 22.6727C50.3704 21.0768 49.0336 19.8197 47.3925 19.135C45.7979 18.5416 44.1292 18.3933 42.6458 18.8012L36.3417 12.5341L39.2712 9.64165C42.1637 6.71206 46.8362 6.71206 49.7287 9.64165L79.3583 39.2712C82.2879 42.1637 82.2879 46.8362 79.3583 49.7287L49.7287 79.3583C46.8362 82.2879 42.1637 82.2879 39.2712 79.3583L9.64166 49.7287C6.71208 46.8362 6.71208 42.1637 9.64166 39.2712Z" fill="black"/>
</svg>
