<svg width="89" height="89" viewBox="0 0 89 89" fill="none" xmlns="http://www.w3.org/2000/svg">
<path d="M22.25 11.125C19.2995 11.125 16.4698 12.2971 14.3834 14.3834C12.2971 16.4698 11.125 19.2995 11.125 22.25V66.75C11.125 69.7005 12.2971 72.5302 14.3834 74.6166C16.4698 76.7029 19.2995 77.875 22.25 77.875H66.75C69.7005 77.875 72.5302 76.7029 74.6166 74.6166C76.7029 72.5302 77.875 69.7005 77.875 66.75V22.25C77.875 19.2995 76.7029 16.4698 74.6166 14.3834C72.5302 12.2971 69.7005 11.125 66.75 11.125H22.25ZM49.4469 59.5373C52.1169 61.6881 54.7795 62.745 57.4421 62.719C59.0737 62.719 60.3272 62.4224 61.1949 61.8216C61.6001 61.5586 61.9298 61.1946 62.1515 60.7654C62.3732 60.3363 62.4794 59.8568 62.4595 59.3741C62.4648 58.8477 62.3547 58.3265 62.1369 57.8473C61.919 57.368 61.5988 56.9424 61.1986 56.6003C60.3272 55.8401 58.6807 55.0799 56.2591 54.316C53.3518 53.4742 51.1045 52.3876 49.5285 51.0526C47.9784 49.7176 47.1922 47.856 47.1626 45.4642C47.1626 43.2058 48.1416 41.3182 50.0996 39.7941C52.0057 38.2737 54.4383 37.5098 57.405 37.5098C61.5361 37.5098 64.855 38.5147 67.3545 40.5284L64.499 44.9747C63.471 44.175 62.2915 43.5922 61.0317 43.2614C59.8997 42.8828 58.7171 42.6765 57.5237 42.6495C56.1145 42.6495 54.9835 42.9091 54.138 43.4246C53.2962 43.9437 52.8771 44.6224 52.8771 45.4642C52.8771 46.3913 53.3926 47.1774 54.4235 47.8301C55.4618 48.4568 57.227 49.1502 59.7264 49.9105C62.745 50.8079 64.8958 52.0057 66.1715 53.5001C67.4509 54.9946 68.0887 56.9007 68.0887 59.211C68.0887 61.5769 67.1802 63.6165 65.3557 65.3297C63.5608 67.017 60.9502 67.8996 57.5237 67.9812C53.0366 67.9812 49.2837 66.635 46.2652 63.9428L49.4469 59.5373ZM28.9398 61.9032C29.8113 62.4483 30.857 62.719 32.0808 62.719C33.3602 62.719 34.417 62.3519 35.2625 61.6177C36.1043 60.8575 36.5271 59.5373 36.5271 57.6609V37.9993H42.034V58.7215C41.9524 61.9292 41.029 64.2432 39.2601 65.656C38.295 66.4767 37.1698 67.0879 35.956 67.4509C34.8317 67.7934 33.664 67.972 32.4887 67.9812C30.4491 67.9812 28.6395 67.6289 27.0634 66.9206C25.3761 66.1604 23.9632 64.8143 22.8211 62.8822L26.6555 59.7413C27.3601 60.6943 28.124 61.4137 28.9398 61.9032Z" fill="black"/>
</svg>
