<svg width="89" height="89" viewBox="0 0 89 89" fill="none" xmlns="http://www.w3.org/2000/svg">
<path d="M60.8352 20.3995C60.4088 20.3995 60.1195 20.4514 59.8191 20.5219V20.5701H59.871C60.0713 20.9558 60.4125 21.2376 60.6646 21.5825C60.8649 21.9793 61.0355 22.376 61.2357 22.7691L61.2876 22.7135C61.6362 22.4688 61.8068 22.0757 61.8068 21.4786C61.6585 21.3043 61.6362 21.13 61.5101 20.9595C61.3618 20.711 61.0429 20.5886 60.8426 20.3921L60.8352 20.3995ZM21.3971 69.3273H17.9595C17.8628 63.8641 17.5287 58.4077 16.9582 52.9735H16.9285L11.6998 69.3273H9.08542L3.89375 52.9735H3.85667C3.45058 58.4162 3.20943 63.8699 3.13354 69.3273H0C0.203958 62.0367 0.712 55.1985 1.52042 48.8202H5.785L10.7356 63.8908H10.7653L15.7604 48.8202H19.821C20.7185 56.2925 21.245 63.1343 21.4082 69.3273H21.3971ZM36.2935 54.1973C34.8917 61.7808 33.045 67.2988 30.7606 70.7364C28.9732 73.3916 27.0152 74.7155 24.8903 74.7155C24.323 74.7155 23.6295 74.5449 22.7914 74.2037V72.3718C23.1993 72.4348 23.6814 72.4682 24.2228 72.4682C25.2167 72.4682 26.014 72.1901 26.6221 71.645C27.3527 70.9775 27.7161 70.2284 27.7161 69.4014C27.7161 68.8266 27.4305 67.6585 26.8632 65.9007L23.1029 54.1973H26.4775L29.1735 62.9489C29.7816 64.9366 30.0375 66.3235 29.9337 67.1134C31.417 63.1677 32.4479 58.8549 33.0301 54.1973H36.2935ZM81.9987 69.3273H72.2458V48.8202H75.5276V66.8056H81.9987V69.3273ZM69.687 69.8279L65.9193 67.9737C66.2531 67.6919 66.5757 67.3878 66.865 67.0466C68.4707 65.1702 69.268 62.3815 69.268 58.6917C69.268 51.9055 66.6054 48.5087 61.2765 48.5087C58.6658 48.5087 56.6262 49.369 55.1577 51.0934C53.5632 52.9772 52.7622 55.751 52.7622 59.4186C52.7622 63.0231 53.4667 65.6708 54.8908 67.3544C56.1887 68.8748 58.143 69.635 60.761 69.635C61.74 69.635 62.6375 69.5127 63.4496 69.2716L68.3631 72.1345L69.6981 69.8279H69.687ZM57.4792 65.2221C56.6448 63.8871 56.2295 61.7363 56.2295 58.7845C56.2295 53.6188 57.8018 51.034 60.939 51.034C62.5818 51.034 63.7945 51.6533 64.5621 52.8882C65.3927 54.2306 65.8081 56.3592 65.8081 59.2777C65.8081 64.4842 64.2357 67.0948 61.0985 67.0948C59.4483 67.0948 58.2431 66.4755 57.4717 65.2407L57.4792 65.2221ZM51.3307 63.6461C51.3307 65.389 50.6929 66.8204 49.4173 67.9329C48.1416 69.0454 46.4395 69.6017 44.2849 69.6017C42.2713 69.6017 40.3393 68.9638 38.4517 67.6919L39.3306 65.9267C40.9548 66.7425 42.4196 67.143 43.7435 67.143C44.9747 67.143 45.9425 66.8723 46.6471 66.3272C46.9993 66.0617 47.2836 65.7167 47.477 65.3204C47.6703 64.924 47.7672 64.4875 47.7596 64.0466C47.7596 62.8228 46.9067 61.7845 45.3566 60.913C43.9178 60.1232 41.0438 58.4767 41.0438 58.4767C39.4789 57.3382 38.7002 56.1182 38.7002 54.112C38.7002 52.4432 39.2824 51.1082 40.4431 50.0884C41.6112 49.0575 43.1131 48.5495 44.9673 48.5495C46.8659 48.5495 48.6014 49.0538 50.1589 50.0699L49.369 51.835C48.1245 51.2884 46.7826 50.9983 45.4234 50.9821C44.3739 50.9821 43.5618 51.2343 42.9981 51.746C42.7121 51.983 42.4815 52.2798 42.3226 52.6155C42.1637 52.9513 42.0804 53.3178 42.0785 53.6892C42.0785 54.9055 42.9462 55.9513 44.5482 56.8413C46.0056 57.6386 48.95 59.3259 48.95 59.3259C50.5557 60.4569 51.353 61.6621 51.353 63.6572L51.3307 63.6461ZM86.1223 41.9449C84.1384 41.893 82.5994 42.0933 81.3126 42.6421C80.9418 42.7904 80.3485 42.7904 80.2965 43.2614C80.5005 43.4579 80.5302 43.7805 80.7045 44.055C81.0011 44.5519 81.5129 45.2157 81.9875 45.5643C82.5067 45.9722 83.0259 46.3653 83.571 46.7138C84.5352 47.3072 85.6291 47.6595 86.5748 48.2565C87.1125 48.6051 87.6613 49.0464 88.2064 49.4172C88.4771 49.6026 88.6514 49.9364 89 50.055V49.9809C88.8294 49.7584 88.7775 49.4357 88.6106 49.1873C88.3622 48.9388 88.1137 48.7163 87.869 48.4716C87.1409 47.5121 86.272 46.6682 85.2917 45.9685C84.4981 45.427 82.7626 44.6705 82.4362 43.762L82.388 43.7101C82.9295 43.6619 83.5747 43.4653 84.0939 43.317C84.9357 43.0945 85.707 43.1427 86.5785 42.9239C86.9715 42.8238 87.3683 42.7014 87.7651 42.5753V42.3528C87.3201 41.9078 86.9864 41.3034 86.5265 40.888C85.243 39.7661 83.8743 38.7457 82.4325 37.8361C81.6538 37.3392 80.6674 37.0203 79.8478 36.5975C79.5512 36.4492 79.0542 36.375 78.8837 36.1265C78.4387 35.5851 78.1791 34.8657 77.8639 34.2205C77.1357 32.8079 76.4591 31.3694 75.8354 29.9077C75.3904 28.9361 75.1197 27.9682 74.5746 27.0782C72.0158 22.8618 69.2457 20.3068 64.9848 17.8074C64.0689 17.2882 62.9712 17.0657 61.8105 16.7913C61.1912 16.7616 60.5719 16.7171 59.9563 16.6912C59.5484 16.5169 59.1553 16.0459 58.8067 15.8197C57.3976 14.9297 53.7486 13.0014 52.7102 15.5527C52.0427 17.1621 53.7004 18.7493 54.2752 19.5651C54.7016 20.1325 55.2393 20.7815 55.536 21.4193C55.7103 21.8495 55.7585 22.2908 55.9328 22.7395C56.3259 23.8297 56.7004 25.046 57.2196 26.0658C57.4903 26.585 57.787 27.1301 58.1355 27.5974C58.3358 27.8681 58.677 27.9942 58.7548 28.4392C58.4062 28.9435 58.384 29.6778 58.1837 30.2933C57.2937 33.1005 57.6423 36.5715 58.9032 38.6371C59.3 39.2527 60.2456 40.6173 61.5101 40.0945C62.6226 39.6495 62.3779 38.2403 62.6968 36.998C62.771 36.7013 62.7227 36.5048 62.8748 36.3045V36.3602C63.2234 37.0573 63.572 37.7211 63.8909 38.4183C64.6548 39.6346 65.9898 40.8955 67.106 41.7373C67.6993 42.1823 68.1703 42.9536 68.912 43.228V43.1538H68.8563C68.6969 42.9388 68.4855 42.8349 68.2852 42.6606C67.8151 42.2003 67.3811 41.7044 66.9873 41.1773C65.9425 39.7497 65.0161 38.239 64.2172 36.6605C63.8093 35.8818 63.4681 35.0437 63.1418 34.2761C62.9935 33.9794 62.9935 33.5344 62.745 33.3861C62.3742 33.9275 61.829 34.3985 61.5583 35.066C61.0874 36.134 61.0392 37.4467 60.8612 38.8114C60.761 38.8373 60.8092 38.8114 60.761 38.8633C59.9675 38.6705 59.6967 37.8472 59.4001 37.1575C58.6584 35.396 58.536 32.5665 59.1776 30.5381C59.3519 30.0189 60.0935 28.3798 59.7969 27.8829C59.6411 27.412 59.1516 27.1413 58.8809 26.7593C58.5327 26.2622 58.2346 25.7318 57.9909 25.1758C57.3976 23.7889 57.1009 22.2537 56.4557 20.8668C56.159 20.2252 55.6398 19.554 55.2171 18.9644C54.7461 18.2969 54.227 17.8259 53.8524 17.036C53.73 16.7653 53.5557 16.3166 53.7523 16.02C53.8042 15.8197 53.908 15.7418 54.1009 15.6862C54.4272 15.4192 55.3432 15.7678 55.6658 15.9161C56.5817 16.287 57.3531 16.6355 58.1207 17.1547C58.4693 17.3995 58.8438 17.8704 59.2888 17.9928H59.808C60.6016 18.1671 61.4953 18.0447 62.237 18.2635C63.5534 18.6863 64.7401 19.3018 65.8044 19.9693C69.0838 22.0642 71.7512 24.9888 73.5362 28.4466C73.8329 29.0177 73.9627 29.5405 74.2334 30.1339C74.7526 31.3576 75.3941 32.5925 75.9207 33.7755C76.4399 34.9436 76.9405 36.134 77.6859 37.1018C78.0567 37.621 79.5475 37.8917 80.215 38.1624C80.7082 38.3849 81.4758 38.5889 81.9208 38.8596C82.7737 39.3788 83.6044 39.9721 84.4054 40.5432C84.8133 40.825 86.0482 41.4443 86.1223 41.9449Z" fill="black"/>
</svg>
