<svg width="89" height="89" viewBox="0 0 89 89" fill="none" xmlns="http://www.w3.org/2000/svg">
<g clip-path="url(#clip0_14_161)">
<path d="M44.5 88.8368C43.2317 88.8368 42.0525 88.5068 40.9511 87.9357L29.7186 81.4906C28.0313 80.5932 28.8768 80.2669 29.3848 80.1037C31.6617 79.3695 32.0845 79.2063 34.4504 77.8973C34.7026 77.7341 35.0437 77.8157 35.2959 77.9788L43.9104 82.9591C44.2441 83.1223 44.6706 83.1223 44.9227 82.9591L78.6204 64.106C78.9541 63.9428 79.1247 63.6165 79.1247 63.2085V25.5838C79.1247 25.1759 78.9578 24.8495 78.6204 24.6864L44.9227 5.91851C44.5853 5.75534 44.1625 5.75534 43.9104 5.91851L10.2127 24.6864C9.87527 24.8495 9.70469 25.2575 9.70469 25.5838V63.2085C9.70469 63.5349 9.87527 63.9428 10.2127 64.106L19.4168 69.2494C24.4008 71.6969 27.5232 68.8415 27.5232 65.9861V28.8508C27.5232 28.3613 27.946 27.8718 28.5393 27.8718H32.8447C33.3527 27.8718 33.8571 28.2798 33.8571 28.8508V65.9824C33.8571 72.4312 30.2266 76.184 23.8928 76.184C21.9496 76.184 20.4292 76.184 16.1238 74.1444L7.25719 69.2494C6.18876 68.6619 5.29653 67.7998 4.67265 66.7522C4.04878 65.7046 3.71587 64.5094 3.70831 63.2901V25.6654C3.70831 23.2179 5.05815 20.9335 7.25719 19.7098L40.9548 0.852922C42.0519 0.290317 43.2671 -0.00311279 44.5 -0.00311279C45.7329 -0.00311279 46.9481 0.290317 48.0452 0.852922L81.7465 19.7061C83.9418 20.9298 85.2916 23.2142 85.2916 25.6617V63.2864C85.2916 65.7339 83.9418 68.0183 81.7465 69.2457L48.0489 88.0952C46.9288 88.5807 45.7208 88.8307 44.5 88.8294M54.887 62.9564C40.1093 62.9564 37.0685 56.4297 37.0685 50.8783C37.0685 50.3888 37.4912 49.8993 38.0809 49.8993H42.4715C42.9796 49.8993 43.3986 50.2257 43.3986 50.7152C44.0772 55.0391 46.0204 57.1603 54.9723 57.1603C62.0664 57.1603 65.1072 55.6102 65.1072 51.9389C65.1072 49.8178 64.2617 48.2677 53.1997 47.2071C43.9919 46.306 38.2514 44.3517 38.2514 37.2502C38.2514 30.6383 43.9919 26.7185 53.6225 26.7185C64.4323 26.7185 69.7537 30.3119 70.4286 38.1476C70.4211 38.4129 70.3317 38.6694 70.1728 38.8819C70.0059 39.045 69.7537 39.2082 69.4979 39.2082H65.1072C64.8939 39.2031 64.6881 39.1286 64.5208 38.9962C64.3536 38.8637 64.234 38.6804 64.1801 38.474C63.164 33.9869 60.5459 32.5147 53.6225 32.5147C45.8498 32.5147 44.9227 35.1253 44.9227 37.087C44.9227 39.453 46.0204 40.1872 56.4927 41.4925C66.8798 42.7979 71.7785 44.6743 71.7785 51.6905C71.6932 58.8772 65.6152 62.9564 54.887 62.9564Z" fill="black"/>
</g>
<defs>
<clipPath id="clip0_14_161">
<rect width="89" height="89" fill="white"/>
</clipPath>
</defs>
</svg>
