<svg width="128" height="128" viewBox="0 0 128 128" fill="none" xmlns="http://www.w3.org/2000/svg">
<path d="M22.666 1.59998C10.133 1.59998 0 11.734 0 24.268V103.732C0 116.266 10.133 126.4 22.666 126.4H105.334C117.867 126.4 128 116.266 128 103.732V24.268C128 11.734 117.867 1.59998 105.334 1.59998H22.666ZM45.867 33.334C50.24 33.334 53.867 33.866 56.853 34.986C59.5305 35.8958 61.9719 37.3903 64 39.361C65.7188 41.0847 67.0469 43.1579 67.894 45.44C68.694 47.68 69.119 49.973 69.119 52.373C69.119 56.96 68.053 60.746 65.919 63.733C63.787 66.719 60.801 68.96 57.334 70.24C53.707 71.574 49.707 72.053 45.334 72.053C44.054 72.053 43.199 72.053 42.666 72C42.133 71.947 41.386 71.947 40.373 71.947V89.067C40.426 89.44 40.16 89.761 39.787 89.814H29.44C29.014 89.814 28.802 89.599 28.802 89.119V34.24C28.802 33.867 28.962 33.652 29.335 33.652C30.242 33.652 31.095 33.652 32.321 33.6C33.601 33.546 34.934 33.548 36.374 33.494C37.814 33.441 39.361 33.44 41.014 33.387C42.668 33.333 44.267 33.334 45.867 33.334ZM47.057 43.838C46.7847 43.8327 46.5123 43.8334 46.24 43.84C44.854 43.84 43.627 43.841 42.613 43.895C41.547 43.841 40.801 43.894 40.428 43.947V61.867C41.174 61.921 41.866 61.973 42.506 61.973H45.334C47.414 61.973 49.494 61.653 51.467 61.013C53.174 60.533 54.667 59.519 55.84 58.186C56.96 56.852 57.494 55.04 57.494 52.693C57.5444 51.0266 57.1192 49.3804 56.268 47.947C55.361 46.561 54.08 45.493 52.533 44.907C50.806 44.207 48.957 43.875 47.057 43.838ZM91.787 46.561C93.974 46.561 96.214 46.719 98.4 47.039C100 47.252 101.546 47.681 102.986 48.268C103.2 48.321 103.413 48.533 103.519 48.746C103.573 48.959 103.627 49.173 103.627 49.386V58.08C103.628 58.1835 103.604 58.2858 103.558 58.3785C103.512 58.4711 103.444 58.5515 103.361 58.613C102.881 58.72 102.614 58.72 102.401 58.613C100.801 57.76 99.093 57.174 97.279 56.801C95.306 56.374 93.333 56.106 91.307 56.106C90.24 56.052 89.119 56.214 88.106 56.48C87.412 56.64 86.826 57.014 86.453 57.547C86.187 57.974 86.027 58.507 86.027 58.987C86.027 59.467 86.241 59.947 86.561 60.373C87.041 60.96 87.68 61.441 88.373 61.815C89.6097 62.4544 90.8732 63.0406 92.16 63.572C95.04 64.532 97.813 65.867 100.373 67.467C102.133 68.587 103.573 70.081 104.586 71.894C105.444 73.5951 105.866 75.4826 105.814 77.387C105.857 79.9079 105.13 82.382 103.732 84.48C102.245 86.6087 100.17 88.2579 97.76 89.226C95.146 90.346 91.946 90.933 88.106 90.933C85.652 90.933 83.254 90.72 80.854 90.24C78.973 89.9149 77.1436 89.3408 75.414 88.533C75.041 88.32 74.773 87.946 74.826 87.519V78.24C74.826 78.08 74.879 77.866 75.039 77.76C75.199 77.653 75.359 77.708 75.519 77.814C77.5736 79.0255 79.8053 79.9075 82.133 80.428C84.16 80.961 86.294 81.227 88.428 81.227C90.454 81.227 91.894 80.96 92.854 80.48C93.707 80.107 94.293 79.2 94.293 78.24C94.293 77.494 93.867 76.799 93.013 76.105C92.16 75.412 90.4 74.613 87.787 73.6C85.1059 72.6553 82.5597 71.3644 80.213 69.76C78.542 68.5689 77.1574 67.0203 76.16 65.227C75.3089 63.5425 74.8877 61.6737 74.934 59.787C74.934 57.494 75.573 55.307 76.746 53.334C78.079 51.201 80.054 49.494 82.348 48.428C84.854 47.148 87.999 46.561 91.787 46.561Z" fill="black"/>
</svg>
