<svg width="96" height="96" viewBox="0 0 96 96" fill="none" xmlns="http://www.w3.org/2000/svg">
<path d="M48.5055 55.9819C47.0836 56.6352 45.5256 57.4866 42.4068 59.1983C41.2243 59.8634 39.9886 60.5286 38.8386 61.1553C38.7588 61.0755 38.676 60.975 38.5962 60.8922C32.4265 54.2998 21.0154 49.6437 21.5002 40.7897C21.6805 37.5644 22.7891 29.0977 43.4149 18.8159C60.3897 10.4497 73.8968 12.7674 76.2293 17.9083C79.5816 25.2369 68.9894 38.8741 51.4588 40.8518C49.5186 41.2453 47.5148 41.1978 45.5954 40.7127C43.676 40.2276 41.8902 39.3174 40.3699 38.0493C39.4417 37.0412 39.3027 36.982 38.9598 37.1831C38.3952 37.4787 38.7588 38.3922 38.9598 38.9154C39.6285 40.1262 40.5332 41.1905 41.6203 42.0456C42.7074 42.9007 43.955 43.5291 45.2891 43.8938C52.1879 45.3849 59.3807 44.6724 65.8528 41.8569C76.4776 37.7448 84.7728 26.3129 82.3428 16.7288C79.9039 7.01159 63.7746 3.80701 48.5144 9.22878C38.9577 12.4493 30.1281 17.519 22.529 24.149C14.1214 32.0126 12.7911 38.8474 13.335 41.7091C15.2921 51.8697 29.2988 58.4829 34.9157 63.3814C34.62 63.544 34.3717 63.677 34.15 63.8041C31.3475 65.1965 20.6636 70.7809 18 76.6874C14.9758 83.3804 18.4848 88.1784 20.8025 88.8229C24.2953 89.6595 27.9622 89.3845 31.2911 88.0362C34.6199 86.6879 37.4447 84.3336 39.3707 81.3021C41.0064 78.7884 42.0107 75.9168 42.2984 72.9316C42.5861 69.9463 42.1487 66.9358 41.0233 64.1559C41.6873 63.6263 42.3954 63.1545 43.14 62.7458C44.5708 61.9003 45.9336 61.0666 47.1427 60.4222C51.2826 58.483 55.8004 57.4846 60.3719 57.4984C69.9679 58.6277 71.8629 64.6141 71.4993 67.1358C71.3292 68.0305 70.9694 68.8783 70.4442 69.6223C69.9189 70.3663 69.2404 70.9892 68.4543 71.449C67.7892 71.8717 67.5674 72.0136 67.6266 72.3152C67.7064 72.7586 68.0286 72.7379 68.5933 72.6581C70.035 72.2024 71.3052 71.3213 72.237 70.1305C73.1687 68.9397 73.7185 67.4948 73.814 65.9858C74.1096 60.0733 68.4721 53.5873 58.4918 53.6464C55.5034 53.6516 52.5448 54.2411 49.7826 55.3817C49.3392 55.565 48.9086 55.7621 48.4908 55.973L48.5055 55.9819ZM34.2416 79.1559C31.0548 82.6236 26.6204 83.9332 24.7048 82.8246C22.6354 81.6421 23.4543 76.513 27.3654 72.8443C29.6818 70.7572 32.1855 68.8879 34.8447 67.26C35.3088 66.9643 35.9947 66.5741 36.8195 66.0775L37.0412 65.9563L37.526 65.6606C38.2236 67.9993 38.2871 70.4814 37.7099 72.8527C37.1328 75.224 35.9359 77.3993 34.2416 79.1559Z" fill="black"/>
</svg>
