<svg width="81" height="81" viewBox="0 0 81 81" fill="none" xmlns="http://www.w3.org/2000/svg">
<path d="M40.5 20.25C31.4888 20.25 25.8862 24.7387 23.625 33.75C27 29.2612 30.9487 27.5738 35.4375 28.6875C38.0025 29.3287 39.8587 31.185 41.8838 33.2438C45.1912 36.6188 48.9375 40.5 57.375 40.5C66.3862 40.5 71.9887 36.0113 74.25 27C70.875 31.4888 66.9263 33.1763 62.4375 32.0625C59.8725 31.4213 58.05 29.565 55.9912 27.5062C52.6838 24.1312 48.9375 20.25 40.5 20.25ZM23.625 40.5C14.6137 40.5 9.01125 44.9888 6.75 54C10.125 49.5112 14.0738 47.8237 18.5625 48.9375C21.1275 49.5788 22.95 51.435 25.0087 53.4938C28.3162 56.8688 32.0625 60.75 40.5 60.75C49.5112 60.75 55.1138 56.2612 57.375 47.25C54 51.7388 50.0513 53.4263 45.5625 52.3125C42.9975 51.6712 41.175 49.815 39.1162 47.7562C35.8088 44.3812 32.0625 40.5 23.625 40.5Z" fill="black"/>
</svg>
