<svg width="89" height="89" viewBox="0 0 89 89" fill="none" xmlns="http://www.w3.org/2000/svg">
<g clip-path="url(#clip0_14_151)">
<path d="M30.7273 39.2267L32.6259 7.1237C32.641 6.8725 32.7392 6.63345 32.905 6.44414C33.0708 6.25484 33.2949 6.12602 33.5419 6.07795L64.4397 0.0222444C64.6306 -0.0152295 64.8278 -0.00303399 65.0126 0.0576607C65.1973 0.118355 65.3634 0.225512 65.4948 0.36885C65.6262 0.512187 65.7186 0.686895 65.7631 0.876209C65.8075 1.06552 65.8026 1.26309 65.7488 1.44995L59.9712 21.4861C59.9176 21.6726 59.9127 21.8697 59.957 22.0587C60.0013 22.2476 60.0934 22.422 60.2243 22.5652C60.3553 22.7085 60.5207 22.8157 60.705 22.8767C60.8892 22.9378 61.086 22.9505 61.2765 22.9138L70.132 21.208C70.3404 21.1672 70.556 21.1857 70.7544 21.2614C70.9527 21.3371 71.1259 21.4669 71.2541 21.6361C71.3824 21.8053 71.4606 22.0071 71.4799 22.2186C71.4992 22.43 71.4587 22.6426 71.3632 22.8322L46.1836 73.0801L45.7275 73.7847C45.6294 73.9442 45.4919 74.0758 45.3282 74.1667C45.1646 74.2576 44.9802 74.3049 44.793 74.3039C44.1366 74.3039 43.4951 73.7402 43.6619 72.9355L47.7226 53.2776C47.7624 53.0851 47.7516 52.8855 47.6911 52.6984C47.6305 52.5113 47.5224 52.3431 47.3774 52.2104C47.2323 52.0776 47.0552 51.9849 46.8635 51.9412C46.6718 51.8975 46.472 51.9044 46.2837 51.9612L40.9697 53.5743C40.7816 53.6316 40.5818 53.6391 40.3899 53.5959C40.198 53.5527 40.0206 53.4605 39.8752 53.3281C39.7297 53.1957 39.6211 53.0278 39.5601 52.8408C39.4991 52.6539 39.4878 52.4542 39.5272 52.2615L42.0859 39.7459C42.1247 39.5591 42.1157 39.3654 42.0599 39.1829C42.004 39.0005 41.903 38.835 41.7662 38.7019C41.6294 38.5688 41.4612 38.4724 41.2773 38.4215C41.0933 38.3707 40.8995 38.367 40.7138 38.4109L32.1105 40.3986C31.9388 40.438 31.7603 40.437 31.589 40.3954C31.4178 40.3539 31.2586 40.2731 31.124 40.1594C30.9895 40.0457 30.8832 39.9022 30.8137 39.7404C30.7442 39.5785 30.7133 39.4026 30.7236 39.2267H30.7273ZM86.2633 9.83449L64.0949 13.8692L62.0775 20.8668L69.7797 19.3835C70.3766 19.2645 70.9957 19.3319 71.5529 19.5767C72.1101 19.8215 72.5786 20.2318 72.8947 20.7518C73.1631 21.1843 73.3156 21.6786 73.3377 22.1871C73.3598 22.6957 73.2507 23.2013 73.0208 23.6555L47.8375 73.9071L47.7893 73.9998L47.7337 74.0851L47.2813 74.7897C47.0139 75.2086 46.6456 75.5537 46.2102 75.7934C45.7748 76.0331 45.2863 76.1598 44.7893 76.1618C44.3392 76.1593 43.8951 76.0576 43.4888 75.8641C43.0824 75.6705 42.7237 75.3898 42.4382 75.0418C42.1605 74.698 41.9631 74.2965 41.8604 73.8667C41.7578 73.4368 41.7524 72.9894 41.8449 72.5572L45.6607 54.086L41.5074 55.3469C40.9393 55.518 40.3332 55.5171 39.7656 55.3441C39.1981 55.1712 38.6944 54.8341 38.3182 54.3753C38.0378 54.0328 37.8373 53.632 37.7314 53.2022C37.6256 52.7723 37.617 52.3243 37.7064 51.8907L40.0426 40.469L32.5258 42.2045C32.017 42.3211 31.4865 42.3027 30.987 42.1511C30.4874 41.9996 30.0361 41.7201 29.6778 41.3405C29.4 41.0434 29.1855 40.693 29.0472 40.3106C28.9088 39.9281 28.8496 39.5215 28.8731 39.1155L30.3157 14.7517L2.72565 9.81966C2.30056 9.74295 1.8624 9.78914 1.46266 9.95282C1.06291 10.1165 0.718172 10.3909 0.468946 10.7437C0.219721 11.0965 0.0763578 11.5131 0.0556984 11.9445C0.0350389 12.376 0.137941 12.8044 0.352317 13.1794L42.9425 87.8541C43.1415 88.2036 43.4297 88.494 43.7778 88.6955C44.1259 88.897 44.5212 89.0024 44.9234 89.0009C45.3256 88.9994 45.7201 88.891 46.0667 88.6869C46.4132 88.4828 46.6993 88.1903 46.8956 87.8393L88.6514 13.172C88.8607 12.7963 88.959 12.3689 88.9348 11.9395C88.9105 11.5102 88.7648 11.0965 88.5145 10.7468C88.2643 10.3971 87.9198 10.1256 87.5212 9.9641C87.1227 9.80259 86.6864 9.75764 86.2633 9.83449Z" fill="black"/>
</g>
<defs>
<clipPath id="clip0_14_151">
<rect width="89" height="89" fill="white"/>
</clipPath>
</defs>
</svg>
