<svg width="89" height="89" viewBox="0 0 89 89" fill="none" xmlns="http://www.w3.org/2000/svg">
<g clip-path="url(#clip0_23_11)">
<mask id="mask0_23_11" style="mask-type:luminance" maskUnits="userSpaceOnUse" x="0" y="0" width="89" height="89">
<path d="M0 0H89V89H0V0Z" fill="white"/>
</mask>
<g mask="url(#mask0_23_11)">
<path d="M0.845508 31.0388C0.845508 31.0388 -1.32016 29.4554 1.27938 27.349L7.34251 21.8681C7.34251 21.8681 9.0743 20.0251 10.9099 21.6308L66.8353 64.4324V84.9543C66.8353 84.9543 66.8093 88.1805 62.7191 87.8245L0.845508 31.0388Z" fill="black"/>
<path d="M15.2635 44.2664L0.845508 57.5126C0.845508 57.5126 -0.637825 58.6251 0.845508 60.6165L7.53905 66.7723C7.53905 66.7723 9.12992 68.4967 11.4773 66.5313L26.7593 54.8204L15.2635 44.2664ZM40.5692 44.374L67.0096 23.9707L66.8353 3.55635C66.8353 3.55635 65.7043 -0.901063 61.9403 1.42035L26.7593 33.783L40.5692 44.374Z" fill="black"/>
<path d="M62.7154 87.8505C64.2506 89.4376 66.1122 88.9185 66.1122 88.9185L86.7157 78.6575C89.3523 76.8404 88.9815 74.5858 88.9815 74.5858V13.3056C88.9815 10.6133 86.2559 9.68252 86.2559 9.68252L68.3965 0.979058C64.4954 -1.45732 61.9403 1.42035 61.9403 1.42035C61.9403 1.42035 65.2259 -0.971526 66.8353 3.55635V84.5834C66.8353 85.1397 66.7166 85.6848 66.483 86.178C66.0121 87.1385 64.9923 88.0322 62.5448 87.6613L62.7154 87.8505Z" fill="black"/>
</g>
</g>
<defs>
<clipPath id="clip0_23_11">
<rect width="89" height="89" fill="white"/>
</clipPath>
</defs>
</svg>
